<mxfile host="Electron" modified="2023-06-03T13:27:53.166Z" agent="Mozilla/5.0 (Windows NT 10.0; Win64; x64) AppleWebKit/537.36 (KHTML, like Gecko) draw.io/21.2.8 Chrome/112.0.5615.165 Electron/24.2.0 Safari/537.36" etag="3-qE5wEL3enDncnfSu6W" version="21.2.8" type="device">
  <diagram id="u6w0vgpRJaas2tgboFGm" name="Page-1">
    <mxGraphModel dx="156" dy="91" grid="1" gridSize="10" guides="1" tooltips="1" connect="1" arrows="1" fold="1" page="1" pageScale="1" pageWidth="1654" pageHeight="1169" math="0" shadow="0">
      <root>
        <mxCell id="0" />
        <mxCell id="1" parent="0" />
        <mxCell id="1nyOireFhNk5vsuvswtc-1" value="Manager" style="rounded=0;whiteSpace=wrap;html=1;fillColor=#1ba1e2;strokeColor=#006EAF;fontColor=#ffffff;" parent="1" vertex="1">
          <mxGeometry x="230" y="80" width="120" height="60" as="geometry" />
        </mxCell>
        <mxCell id="25Zu7PeEIxpEX03kHfXG-22" style="edgeStyle=orthogonalEdgeStyle;shape=connector;rounded=1;orthogonalLoop=1;jettySize=auto;html=1;entryX=0;entryY=0.5;entryDx=0;entryDy=0;labelBackgroundColor=default;strokeColor=default;fontFamily=Helvetica;fontSize=13;fontColor=default;endArrow=none;endFill=0;fillColor=none;" parent="1" source="1nyOireFhNk5vsuvswtc-3" target="1nyOireFhNk5vsuvswtc-176" edge="1">
          <mxGeometry relative="1" as="geometry" />
        </mxCell>
        <mxCell id="1nyOireFhNk5vsuvswtc-3" value="CoachingStaff" style="rounded=0;whiteSpace=wrap;html=1;fontSize=13;fillColor=#1ba1e2;strokeColor=#006EAF;fontColor=#ffffff;" parent="1" vertex="1">
          <mxGeometry x="230" y="235" width="120" height="60" as="geometry" />
        </mxCell>
        <mxCell id="1nyOireFhNk5vsuvswtc-4" value="" style="shape=flexArrow;endArrow=classic;html=1;rounded=0;fontSize=13;endWidth=22.916666666666668;endSize=10.116666666666667;width=17.5;exitX=0.5;exitY=1;exitDx=0;exitDy=0;entryX=0.541;entryY=-0.016;entryDx=0;entryDy=0;entryPerimeter=0;" parent="1" source="1nyOireFhNk5vsuvswtc-3" target="1nyOireFhNk5vsuvswtc-5" edge="1">
          <mxGeometry width="50" height="50" relative="1" as="geometry">
            <mxPoint x="289.46" y="460" as="sourcePoint" />
            <mxPoint x="289" y="640" as="targetPoint" />
          </mxGeometry>
        </mxCell>
        <mxCell id="1nyOireFhNk5vsuvswtc-5" value="Person" style="rounded=0;whiteSpace=wrap;html=1;fontSize=13;fillColor=#1ba1e2;strokeColor=#006EAF;fontColor=#ffffff;" parent="1" vertex="1">
          <mxGeometry x="225" y="779.5" width="120" height="60" as="geometry" />
        </mxCell>
        <mxCell id="WEIgRbPyTQdyQePMtLrC-47" style="edgeStyle=orthogonalEdgeStyle;shape=connector;rounded=1;orthogonalLoop=1;jettySize=auto;html=1;labelBackgroundColor=default;strokeColor=default;fontFamily=Helvetica;fontSize=13;fontColor=default;endArrow=none;endFill=0;fillColor=none;" parent="1" source="1nyOireFhNk5vsuvswtc-6" target="WEIgRbPyTQdyQePMtLrC-46" edge="1">
          <mxGeometry relative="1" as="geometry" />
        </mxCell>
        <mxCell id="1nyOireFhNk5vsuvswtc-6" value="Player" style="rounded=0;whiteSpace=wrap;html=1;fontSize=13;fillColor=#1ba1e2;fontColor=#ffffff;strokeColor=#006EAF;" parent="1" vertex="1">
          <mxGeometry x="535" y="779.5" width="120" height="60" as="geometry" />
        </mxCell>
        <mxCell id="1nyOireFhNk5vsuvswtc-10" value="" style="shape=flexArrow;endArrow=classic;html=1;rounded=0;fontSize=13;endWidth=19.545454545454543;endSize=9.754545454545454;width=17.5;exitX=0;exitY=0.5;exitDx=0;exitDy=0;" parent="1" source="1nyOireFhNk5vsuvswtc-6" edge="1">
          <mxGeometry width="50" height="50" relative="1" as="geometry">
            <mxPoint x="425.46000000000004" y="779.5" as="sourcePoint" />
            <mxPoint x="350" y="809.5" as="targetPoint" />
          </mxGeometry>
        </mxCell>
        <mxCell id="1nyOireFhNk5vsuvswtc-43" style="edgeStyle=orthogonalEdgeStyle;shape=connector;rounded=1;orthogonalLoop=1;jettySize=auto;html=1;entryX=1.002;entryY=0.396;entryDx=0;entryDy=0;labelBackgroundColor=default;strokeColor=default;fontFamily=Helvetica;fontSize=11;fontColor=default;endArrow=none;endFill=0;fillColor=none;entryPerimeter=0;exitX=0;exitY=0.5;exitDx=0;exitDy=0;" parent="1" source="1nyOireFhNk5vsuvswtc-11" target="1nyOireFhNk5vsuvswtc-5" edge="1">
          <mxGeometry relative="1" as="geometry">
            <Array as="points">
              <mxPoint x="360" y="450" />
              <mxPoint x="360" y="803" />
            </Array>
          </mxGeometry>
        </mxCell>
        <mxCell id="cyQam68AUp5a6yiPko8j-16" style="edgeStyle=orthogonalEdgeStyle;shape=connector;rounded=1;orthogonalLoop=1;jettySize=auto;html=1;entryX=0;entryY=0.5;entryDx=0;entryDy=0;labelBackgroundColor=default;strokeColor=default;fontFamily=Helvetica;fontSize=13;fontColor=default;endArrow=none;endFill=0;fillColor=none;exitX=0.5;exitY=0;exitDx=0;exitDy=0;" parent="1" source="1nyOireFhNk5vsuvswtc-11" target="1nyOireFhNk5vsuvswtc-14" edge="1">
          <mxGeometry relative="1" as="geometry" />
        </mxCell>
        <mxCell id="1nyOireFhNk5vsuvswtc-11" value="HasContract" style="rhombus;whiteSpace=wrap;html=1;fontSize=13;fillColor=#1ba1e2;fontColor=#ffffff;strokeColor=#006EAF;" parent="1" vertex="1">
          <mxGeometry x="435" y="392" width="110" height="105" as="geometry" />
        </mxCell>
        <mxCell id="1nyOireFhNk5vsuvswtc-14" value="Contract" style="whiteSpace=wrap;html=1;fontSize=13;fillColor=#1ba1e2;fontColor=#ffffff;strokeColor=#006EAF;" parent="1" vertex="1">
          <mxGeometry x="540" y="235" width="120" height="60" as="geometry" />
        </mxCell>
        <mxCell id="1nyOireFhNk5vsuvswtc-19" value="" style="shape=flexArrow;endArrow=classic;html=1;rounded=0;fontSize=13;entryX=0.5;entryY=0;entryDx=0;entryDy=0;exitX=0.5;exitY=1;exitDx=0;exitDy=0;width=17.27272727272727;endSize=8.027272727272727;fillColor=none;" parent="1" source="1nyOireFhNk5vsuvswtc-1" target="1nyOireFhNk5vsuvswtc-3" edge="1">
          <mxGeometry width="50" height="50" relative="1" as="geometry">
            <mxPoint x="270" y="200" as="sourcePoint" />
            <mxPoint x="320" y="150" as="targetPoint" />
          </mxGeometry>
        </mxCell>
        <mxCell id="1nyOireFhNk5vsuvswtc-20" value="ContracWith" style="rhombus;whiteSpace=wrap;html=1;fontSize=13;fillColor=#1ba1e2;fontColor=#ffffff;strokeColor=#006EAF;" parent="1" vertex="1">
          <mxGeometry x="964" y="225" width="92" height="80" as="geometry" />
        </mxCell>
        <mxCell id="1nyOireFhNk5vsuvswtc-22" value="" style="endArrow=none;html=1;rounded=1;fillColor=none;exitX=1;exitY=0.5;exitDx=0;exitDy=0;entryX=0;entryY=0.5;entryDx=0;entryDy=0;" parent="1" source="1nyOireFhNk5vsuvswtc-14" target="1nyOireFhNk5vsuvswtc-20" edge="1">
          <mxGeometry width="50" height="50" relative="1" as="geometry">
            <mxPoint x="570" y="315" as="sourcePoint" />
            <mxPoint x="620" y="265" as="targetPoint" />
          </mxGeometry>
        </mxCell>
        <mxCell id="1nyOireFhNk5vsuvswtc-153" style="edgeStyle=orthogonalEdgeStyle;shape=connector;rounded=1;orthogonalLoop=1;jettySize=auto;html=1;entryX=0;entryY=0.5;entryDx=0;entryDy=0;labelBackgroundColor=default;strokeColor=default;fontFamily=Helvetica;fontSize=13;fontColor=default;endArrow=none;endFill=0;fillColor=none;" parent="1" source="1nyOireFhNk5vsuvswtc-23" target="1nyOireFhNk5vsuvswtc-147" edge="1">
          <mxGeometry relative="1" as="geometry" />
        </mxCell>
        <mxCell id="1nyOireFhNk5vsuvswtc-23" value="Team" style="whiteSpace=wrap;html=1;fontSize=13;fillColor=#1ba1e2;strokeColor=#006EAF;fontColor=#ffffff;" parent="1" vertex="1">
          <mxGeometry x="1367.57" y="232" width="120" height="60" as="geometry" />
        </mxCell>
        <mxCell id="1nyOireFhNk5vsuvswtc-25" value="" style="endArrow=none;html=1;rounded=1;fillColor=none;entryX=0;entryY=0.5;entryDx=0;entryDy=0;exitX=1;exitY=0.5;exitDx=0;exitDy=0;" parent="1" source="1nyOireFhNk5vsuvswtc-20" target="1nyOireFhNk5vsuvswtc-23" edge="1">
          <mxGeometry width="50" height="50" relative="1" as="geometry">
            <mxPoint x="760" y="315" as="sourcePoint" />
            <mxPoint x="810" y="265" as="targetPoint" />
          </mxGeometry>
        </mxCell>
        <mxCell id="1nyOireFhNk5vsuvswtc-47" value="Sponsor" style="whiteSpace=wrap;html=1;fontSize=13;fillColor=#1ba1e2;strokeColor=#006EAF;fontColor=#ffffff;" parent="1" vertex="1">
          <mxGeometry x="1367.57" y="776.5" width="120" height="60" as="geometry" />
        </mxCell>
        <mxCell id="1nyOireFhNk5vsuvswtc-125" style="edgeStyle=orthogonalEdgeStyle;shape=connector;rounded=1;orthogonalLoop=1;jettySize=auto;html=1;entryX=-0.002;entryY=0.12;entryDx=0;entryDy=0;entryPerimeter=0;labelBackgroundColor=default;strokeColor=default;fontFamily=Helvetica;fontSize=13;fontColor=default;endArrow=none;endFill=0;fillColor=none;" parent="1" source="1nyOireFhNk5vsuvswtc-86" target="1nyOireFhNk5vsuvswtc-5" edge="1">
          <mxGeometry relative="1" as="geometry" />
        </mxCell>
        <mxCell id="1nyOireFhNk5vsuvswtc-86" value="name" style="ellipse;whiteSpace=wrap;html=1;fontSize=13;rounded=0;" parent="1" vertex="1">
          <mxGeometry x="140" y="775" width="57.5" height="25" as="geometry" />
        </mxCell>
        <mxCell id="1nyOireFhNk5vsuvswtc-102" style="edgeStyle=orthogonalEdgeStyle;shape=connector;rounded=1;orthogonalLoop=1;jettySize=auto;html=1;entryX=0.534;entryY=-0.052;entryDx=0;entryDy=0;entryPerimeter=0;labelBackgroundColor=default;strokeColor=default;fontFamily=Helvetica;fontSize=13;fontColor=default;endArrow=none;endFill=0;fillColor=none;" parent="1" source="1nyOireFhNk5vsuvswtc-91" target="1nyOireFhNk5vsuvswtc-86" edge="1">
          <mxGeometry relative="1" as="geometry" />
        </mxCell>
        <mxCell id="1nyOireFhNk5vsuvswtc-91" value="" style="ellipse;whiteSpace=wrap;html=1;fontSize=13;rounded=0;" parent="1" vertex="1">
          <mxGeometry x="90" y="747.5" width="15" height="15" as="geometry" />
        </mxCell>
        <mxCell id="1nyOireFhNk5vsuvswtc-97" style="edgeStyle=orthogonalEdgeStyle;shape=connector;rounded=1;orthogonalLoop=1;jettySize=auto;html=1;labelBackgroundColor=default;strokeColor=default;fontFamily=Helvetica;fontSize=13;fontColor=default;endArrow=none;endFill=0;fillColor=none;" parent="1" source="1nyOireFhNk5vsuvswtc-96" target="1nyOireFhNk5vsuvswtc-86" edge="1">
          <mxGeometry relative="1" as="geometry" />
        </mxCell>
        <mxCell id="1nyOireFhNk5vsuvswtc-96" value="" style="ellipse;whiteSpace=wrap;html=1;fontSize=13;rounded=0;" parent="1" vertex="1">
          <mxGeometry x="90" y="780" width="15" height="15" as="geometry" />
        </mxCell>
        <mxCell id="1nyOireFhNk5vsuvswtc-101" style="edgeStyle=orthogonalEdgeStyle;shape=connector;rounded=1;orthogonalLoop=1;jettySize=auto;html=1;entryX=0.5;entryY=1;entryDx=0;entryDy=0;labelBackgroundColor=default;strokeColor=default;fontFamily=Helvetica;fontSize=13;fontColor=default;endArrow=none;endFill=0;fillColor=none;" parent="1" source="1nyOireFhNk5vsuvswtc-100" target="1nyOireFhNk5vsuvswtc-86" edge="1">
          <mxGeometry relative="1" as="geometry" />
        </mxCell>
        <mxCell id="1nyOireFhNk5vsuvswtc-100" value="" style="ellipse;whiteSpace=wrap;html=1;fontSize=13;rounded=0;" parent="1" vertex="1">
          <mxGeometry x="90" y="812.5" width="15" height="15" as="geometry" />
        </mxCell>
        <mxCell id="1nyOireFhNk5vsuvswtc-108" value="firstName" style="text;html=1;align=center;verticalAlign=middle;resizable=0;points=[];autosize=1;strokeColor=none;fillColor=none;fontSize=13;fontFamily=Helvetica;fontColor=default;" parent="1" vertex="1">
          <mxGeometry x="10" y="740" width="80" height="30" as="geometry" />
        </mxCell>
        <mxCell id="1nyOireFhNk5vsuvswtc-109" value="middleName" style="text;html=1;align=center;verticalAlign=middle;resizable=0;points=[];autosize=1;strokeColor=none;fillColor=none;fontSize=13;fontFamily=Helvetica;fontColor=default;" parent="1" vertex="1">
          <mxGeometry y="802.5" width="100" height="30" as="geometry" />
        </mxCell>
        <mxCell id="1nyOireFhNk5vsuvswtc-110" value="lastName" style="text;html=1;align=center;verticalAlign=middle;resizable=0;points=[];autosize=1;strokeColor=none;fillColor=none;fontSize=13;fontFamily=Helvetica;fontColor=default;" parent="1" vertex="1">
          <mxGeometry x="10" y="770" width="80" height="30" as="geometry" />
        </mxCell>
        <mxCell id="1nyOireFhNk5vsuvswtc-116" style="edgeStyle=orthogonalEdgeStyle;shape=connector;rounded=1;orthogonalLoop=1;jettySize=auto;html=1;entryX=0.146;entryY=1;entryDx=0;entryDy=0;entryPerimeter=0;labelBackgroundColor=default;strokeColor=default;fontFamily=Helvetica;fontSize=13;fontColor=default;endArrow=none;endFill=0;fillColor=none;" parent="1" source="1nyOireFhNk5vsuvswtc-115" target="1nyOireFhNk5vsuvswtc-5" edge="1">
          <mxGeometry relative="1" as="geometry">
            <Array as="points">
              <mxPoint x="243" y="849.5" />
              <mxPoint x="243" y="849.5" />
            </Array>
          </mxGeometry>
        </mxCell>
        <mxCell id="1nyOireFhNk5vsuvswtc-115" value="" style="ellipse;whiteSpace=wrap;html=1;fontSize=13;rounded=0;" parent="1" vertex="1">
          <mxGeometry x="235" y="874.5" width="15" height="15" as="geometry" />
        </mxCell>
        <mxCell id="1nyOireFhNk5vsuvswtc-120" value="personID" style="text;html=1;align=center;verticalAlign=middle;resizable=0;points=[];autosize=1;strokeColor=none;fillColor=none;fontSize=13;fontFamily=Helvetica;fontColor=default;" parent="1" vertex="1">
          <mxGeometry x="85" y="817" width="80" height="30" as="geometry" />
        </mxCell>
        <mxCell id="1nyOireFhNk5vsuvswtc-124" value="dob" style="text;html=1;align=center;verticalAlign=middle;resizable=0;points=[];autosize=1;strokeColor=none;fillColor=none;fontSize=13;fontFamily=Helvetica;fontColor=default;" parent="1" vertex="1">
          <mxGeometry x="217.5" y="885" width="50" height="30" as="geometry" />
        </mxCell>
        <mxCell id="1nyOireFhNk5vsuvswtc-128" style="edgeStyle=orthogonalEdgeStyle;shape=connector;rounded=1;orthogonalLoop=1;jettySize=auto;html=1;entryX=0.007;entryY=0.886;entryDx=0;entryDy=0;entryPerimeter=0;labelBackgroundColor=default;strokeColor=default;fontFamily=Helvetica;fontSize=13;fontColor=default;endArrow=none;endFill=0;fillColor=none;" parent="1" source="1nyOireFhNk5vsuvswtc-127" target="1nyOireFhNk5vsuvswtc-5" edge="1">
          <mxGeometry relative="1" as="geometry" />
        </mxCell>
        <mxCell id="1nyOireFhNk5vsuvswtc-127" value="" style="ellipse;whiteSpace=wrap;html=1;fontSize=13;rounded=0;fillColor=#000000;" parent="1" vertex="1">
          <mxGeometry x="157.5" y="824.5" width="15" height="15" as="geometry" />
        </mxCell>
        <mxCell id="25Zu7PeEIxpEX03kHfXG-13" style="edgeStyle=orthogonalEdgeStyle;shape=connector;rounded=1;orthogonalLoop=1;jettySize=auto;html=1;entryX=-0.008;entryY=0.119;entryDx=0;entryDy=0;entryPerimeter=0;labelBackgroundColor=default;strokeColor=default;fontFamily=Helvetica;fontSize=13;fontColor=default;endArrow=none;endFill=0;fillColor=none;" parent="1" source="1nyOireFhNk5vsuvswtc-131" target="1nyOireFhNk5vsuvswtc-3" edge="1">
          <mxGeometry relative="1" as="geometry" />
        </mxCell>
        <mxCell id="1nyOireFhNk5vsuvswtc-131" value="" style="ellipse;whiteSpace=wrap;html=1;fontSize=13;rounded=0;" parent="1" vertex="1">
          <mxGeometry x="175" y="235" width="15" height="15" as="geometry" />
        </mxCell>
        <mxCell id="1nyOireFhNk5vsuvswtc-133" value="role" style="text;html=1;align=center;verticalAlign=middle;resizable=0;points=[];autosize=1;strokeColor=none;fillColor=none;fontSize=13;fontFamily=Helvetica;fontColor=default;" parent="1" vertex="1">
          <mxGeometry x="132.5" y="225" width="50" height="30" as="geometry" />
        </mxCell>
        <mxCell id="1nyOireFhNk5vsuvswtc-155" style="edgeStyle=orthogonalEdgeStyle;shape=connector;rounded=1;orthogonalLoop=1;jettySize=auto;html=1;entryX=0.996;entryY=0.126;entryDx=0;entryDy=0;entryPerimeter=0;labelBackgroundColor=default;strokeColor=default;fontFamily=Helvetica;fontSize=13;fontColor=default;endArrow=none;endFill=0;fillColor=none;" parent="1" target="1nyOireFhNk5vsuvswtc-23" edge="1">
          <mxGeometry relative="1" as="geometry">
            <mxPoint x="1512.57" y="239.49999999999994" as="sourcePoint" />
          </mxGeometry>
        </mxCell>
        <mxCell id="1nyOireFhNk5vsuvswtc-147" value="" style="ellipse;whiteSpace=wrap;html=1;fontSize=13;rounded=0;fillColor=#000000;" parent="1" vertex="1">
          <mxGeometry x="1512.57" y="255" width="15" height="15" as="geometry" />
        </mxCell>
        <mxCell id="1nyOireFhNk5vsuvswtc-156" style="edgeStyle=orthogonalEdgeStyle;shape=connector;rounded=1;orthogonalLoop=1;jettySize=auto;html=1;entryX=1.001;entryY=0.871;entryDx=0;entryDy=0;entryPerimeter=0;labelBackgroundColor=default;strokeColor=default;fontFamily=Helvetica;fontSize=13;fontColor=default;endArrow=none;endFill=0;fillColor=none;" parent="1" source="1nyOireFhNk5vsuvswtc-148" target="1nyOireFhNk5vsuvswtc-23" edge="1">
          <mxGeometry relative="1" as="geometry" />
        </mxCell>
        <mxCell id="1nyOireFhNk5vsuvswtc-148" value="" style="ellipse;whiteSpace=wrap;html=1;fontSize=13;rounded=0;" parent="1" vertex="1">
          <mxGeometry x="1512.57" y="277" width="15" height="15" as="geometry" />
        </mxCell>
        <mxCell id="1nyOireFhNk5vsuvswtc-157" value="name" style="text;html=1;align=center;verticalAlign=middle;resizable=0;points=[];autosize=1;strokeColor=none;fillColor=none;fontSize=13;fontFamily=Helvetica;fontColor=default;" parent="1" vertex="1">
          <mxGeometry x="1517.57" y="225" width="60" height="30" as="geometry" />
        </mxCell>
        <mxCell id="1nyOireFhNk5vsuvswtc-160" value="teamID" style="text;html=1;align=center;verticalAlign=middle;resizable=0;points=[];autosize=1;strokeColor=none;fillColor=none;fontSize=13;fontFamily=Helvetica;fontColor=default;" parent="1" vertex="1">
          <mxGeometry x="1517.57" y="247.5" width="70" height="30" as="geometry" />
        </mxCell>
        <mxCell id="1nyOireFhNk5vsuvswtc-161" value="city" style="text;html=1;align=center;verticalAlign=middle;resizable=0;points=[];autosize=1;strokeColor=none;fillColor=none;fontSize=13;fontFamily=Helvetica;fontColor=default;" parent="1" vertex="1">
          <mxGeometry x="1527.57" y="272.5" width="40" height="30" as="geometry" />
        </mxCell>
        <mxCell id="1nyOireFhNk5vsuvswtc-165" style="edgeStyle=orthogonalEdgeStyle;shape=connector;rounded=1;orthogonalLoop=1;jettySize=auto;html=1;entryX=0.996;entryY=0.128;entryDx=0;entryDy=0;entryPerimeter=0;labelBackgroundColor=default;strokeColor=default;fontFamily=Helvetica;fontSize=13;fontColor=default;endArrow=none;endFill=0;fillColor=none;" parent="1" source="1nyOireFhNk5vsuvswtc-162" target="1nyOireFhNk5vsuvswtc-47" edge="1">
          <mxGeometry relative="1" as="geometry" />
        </mxCell>
        <mxCell id="1nyOireFhNk5vsuvswtc-162" value="" style="ellipse;whiteSpace=wrap;html=1;fontSize=13;rounded=0;fillColor=#000000;" parent="1" vertex="1">
          <mxGeometry x="1517.57" y="777" width="15" height="15" as="geometry" />
        </mxCell>
        <mxCell id="1nyOireFhNk5vsuvswtc-171" value="name" style="text;html=1;align=center;verticalAlign=middle;resizable=0;points=[];autosize=1;strokeColor=none;fillColor=none;fontSize=13;fontFamily=Helvetica;fontColor=default;" parent="1" vertex="1">
          <mxGeometry x="1522.57" y="807" width="60" height="30" as="geometry" />
        </mxCell>
        <mxCell id="1nyOireFhNk5vsuvswtc-174" value="(1,1)" style="text;html=1;align=center;verticalAlign=middle;resizable=0;points=[];autosize=1;strokeColor=none;fillColor=none;fontSize=13;fontFamily=Helvetica;fontColor=default;" parent="1" vertex="1">
          <mxGeometry x="485" y="235" width="50" height="30" as="geometry" />
        </mxCell>
        <mxCell id="WEIgRbPyTQdyQePMtLrC-41" style="edgeStyle=orthogonalEdgeStyle;shape=connector;rounded=1;orthogonalLoop=1;jettySize=auto;html=1;entryX=0.5;entryY=0;entryDx=0;entryDy=0;labelBackgroundColor=default;strokeColor=default;fontFamily=Helvetica;fontSize=13;fontColor=default;endArrow=none;endFill=0;fillColor=none;" parent="1" source="1nyOireFhNk5vsuvswtc-176" target="1nyOireFhNk5vsuvswtc-6" edge="1">
          <mxGeometry relative="1" as="geometry" />
        </mxCell>
        <mxCell id="1nyOireFhNk5vsuvswtc-176" value="Trains" style="rhombus;whiteSpace=wrap;html=1;fontSize=13;fillColor=#1ba1e2;strokeColor=#006EAF;fontColor=#ffffff;rounded=0;" parent="1" vertex="1">
          <mxGeometry x="445" y="552.5" width="80" height="80" as="geometry" />
        </mxCell>
        <mxCell id="1nyOireFhNk5vsuvswtc-203" value="(1,n)" style="text;html=1;align=center;verticalAlign=middle;resizable=0;points=[];autosize=1;strokeColor=none;fillColor=none;fontSize=13;fontFamily=Helvetica;fontColor=default;" parent="1" vertex="1">
          <mxGeometry x="342.5" y="240" width="50" height="30" as="geometry" />
        </mxCell>
        <mxCell id="1nyOireFhNk5vsuvswtc-204" value="(1,n)" style="text;html=1;align=center;verticalAlign=middle;resizable=0;points=[];autosize=1;strokeColor=none;fillColor=none;fontSize=13;fontFamily=Helvetica;fontColor=default;" parent="1" vertex="1">
          <mxGeometry x="515" y="565" width="50" height="30" as="geometry" />
        </mxCell>
        <mxCell id="1nyOireFhNk5vsuvswtc-205" value="(1,1)" style="text;html=1;align=center;verticalAlign=middle;resizable=0;points=[];autosize=1;strokeColor=none;fillColor=none;fontSize=13;fontFamily=Helvetica;fontColor=default;" parent="1" vertex="1">
          <mxGeometry x="913.5" y="240" width="50" height="30" as="geometry" />
        </mxCell>
        <mxCell id="1nyOireFhNk5vsuvswtc-206" value="(0,n)" style="text;html=1;align=center;verticalAlign=middle;resizable=0;points=[];autosize=1;strokeColor=none;fillColor=none;fontSize=13;fontFamily=Helvetica;fontColor=default;" parent="1" vertex="1">
          <mxGeometry x="1060" y="235" width="50" height="30" as="geometry" />
        </mxCell>
        <mxCell id="1nyOireFhNk5vsuvswtc-209" value="type" style="text;html=1;align=center;verticalAlign=middle;resizable=0;points=[];autosize=1;strokeColor=none;fillColor=none;fontSize=13;fontFamily=Helvetica;fontColor=default;" parent="1" vertex="1">
          <mxGeometry x="985" y="886.5" width="50" height="30" as="geometry" />
        </mxCell>
        <mxCell id="1nyOireFhNk5vsuvswtc-220" value="(1,n)" style="text;html=1;align=center;verticalAlign=middle;resizable=0;points=[];autosize=1;strokeColor=none;fillColor=none;fontSize=13;fontFamily=Helvetica;fontColor=default;" parent="1" vertex="1">
          <mxGeometry x="392.5" y="422.5" width="50" height="30" as="geometry" />
        </mxCell>
        <mxCell id="PQA37V6N7CLmbWVco3Oz-23" value="startDate" style="text;html=1;align=center;verticalAlign=middle;resizable=0;points=[];autosize=1;strokeColor=none;fillColor=none;fontSize=13;fontFamily=Helvetica;fontColor=default;" parent="1" vertex="1">
          <mxGeometry x="917.5" y="886.5" width="80" height="30" as="geometry" />
        </mxCell>
        <mxCell id="PQA37V6N7CLmbWVco3Oz-27" value="endDate" style="text;html=1;align=center;verticalAlign=middle;resizable=0;points=[];autosize=1;strokeColor=none;fillColor=none;fontSize=13;fontFamily=Helvetica;fontColor=default;" parent="1" vertex="1">
          <mxGeometry x="1035" y="885" width="70" height="30" as="geometry" />
        </mxCell>
        <mxCell id="WEIgRbPyTQdyQePMtLrC-92" style="edgeStyle=orthogonalEdgeStyle;shape=connector;rounded=1;orthogonalLoop=1;jettySize=auto;html=1;entryX=0;entryY=0.5;entryDx=0;entryDy=0;labelBackgroundColor=default;strokeColor=default;fontFamily=Helvetica;fontSize=13;fontColor=default;endArrow=none;endFill=0;fillColor=none;" parent="1" source="PQA37V6N7CLmbWVco3Oz-64" target="PQA37V6N7CLmbWVco3Oz-67" edge="1">
          <mxGeometry relative="1" as="geometry" />
        </mxCell>
        <mxCell id="PQA37V6N7CLmbWVco3Oz-64" value="CaptainHistory" style="rounded=0;whiteSpace=wrap;html=1;fontFamily=Helvetica;fontSize=13;fontColor=#ffffff;fillColor=#1ba1e2;strokeColor=#006EAF;" parent="1" vertex="1">
          <mxGeometry x="946" y="504.5" width="120" height="60" as="geometry" />
        </mxCell>
        <mxCell id="WEIgRbPyTQdyQePMtLrC-93" style="edgeStyle=orthogonalEdgeStyle;shape=connector;rounded=1;orthogonalLoop=1;jettySize=auto;html=1;entryX=0;entryY=0.5;entryDx=0;entryDy=0;labelBackgroundColor=default;strokeColor=default;fontFamily=Helvetica;fontSize=13;fontColor=default;endArrow=none;endFill=0;fillColor=none;" parent="1" source="PQA37V6N7CLmbWVco3Oz-67" target="1nyOireFhNk5vsuvswtc-23" edge="1">
          <mxGeometry relative="1" as="geometry" />
        </mxCell>
        <mxCell id="PQA37V6N7CLmbWVco3Oz-67" value="HasCaptainHistory" style="rhombus;whiteSpace=wrap;html=1;fontSize=13;fillColor=#1ba1e2;strokeColor=#006EAF;fontColor=#ffffff;rounded=0;" parent="1" vertex="1">
          <mxGeometry x="1151.25" y="483.41" width="120" height="102.18" as="geometry" />
        </mxCell>
        <mxCell id="cyQam68AUp5a6yiPko8j-4" value="foundationYear" style="text;html=1;align=center;verticalAlign=middle;resizable=0;points=[];autosize=1;strokeColor=none;fillColor=none;fontSize=13;fontFamily=Helvetica;fontColor=default;" parent="1" vertex="1">
          <mxGeometry x="1312.5" y="160" width="110" height="30" as="geometry" />
        </mxCell>
        <mxCell id="cyQam68AUp5a6yiPko8j-7" style="edgeStyle=orthogonalEdgeStyle;shape=connector;rounded=1;orthogonalLoop=1;jettySize=auto;html=1;entryX=0;entryY=0.5;entryDx=0;entryDy=0;labelBackgroundColor=default;strokeColor=default;fontFamily=Helvetica;fontSize=13;fontColor=default;endArrow=none;endFill=0;fillColor=none;" parent="1" source="cyQam68AUp5a6yiPko8j-6" target="1nyOireFhNk5vsuvswtc-1" edge="1">
          <mxGeometry relative="1" as="geometry" />
        </mxCell>
        <mxCell id="cyQam68AUp5a6yiPko8j-6" value="" style="ellipse;whiteSpace=wrap;html=1;fontSize=13;rounded=0;" parent="1" vertex="1">
          <mxGeometry x="172.5" y="102.5" width="15" height="15" as="geometry" />
        </mxCell>
        <mxCell id="cyQam68AUp5a6yiPko8j-8" value="yearsOfExperience" style="text;html=1;align=center;verticalAlign=middle;resizable=0;points=[];autosize=1;strokeColor=none;fillColor=none;fontSize=13;fontFamily=Helvetica;fontColor=default;" parent="1" vertex="1">
          <mxGeometry x="42.5" y="95" width="130" height="30" as="geometry" />
        </mxCell>
        <mxCell id="cyQam68AUp5a6yiPko8j-10" style="edgeStyle=orthogonalEdgeStyle;shape=connector;rounded=1;orthogonalLoop=1;jettySize=auto;html=1;entryX=0.148;entryY=0.002;entryDx=0;entryDy=0;entryPerimeter=0;labelBackgroundColor=default;strokeColor=default;fontFamily=Helvetica;fontSize=13;fontColor=default;endArrow=none;endFill=0;fillColor=none;" parent="1" source="cyQam68AUp5a6yiPko8j-9" target="1nyOireFhNk5vsuvswtc-6" edge="1">
          <mxGeometry relative="1" as="geometry" />
        </mxCell>
        <mxCell id="cyQam68AUp5a6yiPko8j-9" value="" style="ellipse;whiteSpace=wrap;html=1;fontSize=13;rounded=0;fillColor=#FFFFFF;" parent="1" vertex="1">
          <mxGeometry x="545" y="742.5" width="15" height="15" as="geometry" />
        </mxCell>
        <mxCell id="cyQam68AUp5a6yiPko8j-11" value="startingXI" style="text;html=1;align=center;verticalAlign=middle;resizable=0;points=[];autosize=1;strokeColor=none;fillColor=none;fontSize=13;fontFamily=Helvetica;fontColor=default;" parent="1" vertex="1">
          <mxGeometry x="512.5" y="712.5" width="80" height="30" as="geometry" />
        </mxCell>
        <mxCell id="cyQam68AUp5a6yiPko8j-43" style="edgeStyle=orthogonalEdgeStyle;shape=connector;rounded=1;orthogonalLoop=1;jettySize=auto;html=1;labelBackgroundColor=default;strokeColor=default;fontFamily=Helvetica;fontSize=13;fontColor=default;endArrow=none;endFill=0;fillColor=none;" parent="1" source="cyQam68AUp5a6yiPko8j-17" edge="1">
          <mxGeometry relative="1" as="geometry">
            <mxPoint x="547.5" y="235" as="targetPoint" />
          </mxGeometry>
        </mxCell>
        <mxCell id="cyQam68AUp5a6yiPko8j-17" value="" style="ellipse;whiteSpace=wrap;html=1;fontSize=13;rounded=0;fillColor=#000000;" parent="1" vertex="1">
          <mxGeometry x="540" y="202.5" width="15" height="15" as="geometry" />
        </mxCell>
        <mxCell id="cyQam68AUp5a6yiPko8j-41" style="edgeStyle=orthogonalEdgeStyle;shape=connector;rounded=1;orthogonalLoop=1;jettySize=auto;html=1;entryX=0.938;entryY=0;entryDx=0;entryDy=0;entryPerimeter=0;labelBackgroundColor=default;strokeColor=default;fontFamily=Helvetica;fontSize=13;fontColor=default;endArrow=none;endFill=0;fillColor=none;" parent="1" source="cyQam68AUp5a6yiPko8j-20" target="1nyOireFhNk5vsuvswtc-14" edge="1">
          <mxGeometry relative="1" as="geometry">
            <Array as="points">
              <mxPoint x="652.5" y="237" />
              <mxPoint x="652.5" y="237" />
            </Array>
          </mxGeometry>
        </mxCell>
        <mxCell id="cyQam68AUp5a6yiPko8j-20" value="" style="ellipse;whiteSpace=wrap;html=1;fontSize=13;rounded=0;" parent="1" vertex="1">
          <mxGeometry x="645" y="202.5" width="15" height="15" as="geometry" />
        </mxCell>
        <mxCell id="cyQam68AUp5a6yiPko8j-24" value="startDate" style="text;html=1;align=center;verticalAlign=middle;resizable=0;points=[];autosize=1;strokeColor=none;fillColor=none;fontSize=13;fontFamily=Helvetica;fontColor=default;" parent="1" vertex="1">
          <mxGeometry x="490" y="327" width="80" height="30" as="geometry" />
        </mxCell>
        <mxCell id="cyQam68AUp5a6yiPko8j-36" value="&lt;span style=&quot;color: rgb(0, 0, 0); font-family: Helvetica; font-size: 13px; font-style: normal; font-variant-ligatures: normal; font-variant-caps: normal; font-weight: 400; letter-spacing: normal; orphans: 2; text-align: center; text-indent: 0px; text-transform: none; widows: 2; word-spacing: 0px; -webkit-text-stroke-width: 0px; background-color: rgb(248, 249, 250); text-decoration-thickness: initial; text-decoration-style: initial; text-decoration-color: initial; float: none; display: inline !important;&quot;&gt;endDate&lt;/span&gt;" style="text;whiteSpace=wrap;html=1;fontSize=13;fontFamily=Helvetica;fontColor=default;" parent="1" vertex="1">
          <mxGeometry x="640" y="327" width="50" height="20" as="geometry" />
        </mxCell>
        <mxCell id="cyQam68AUp5a6yiPko8j-45" value="&lt;span style=&quot;color: rgb(0, 0, 0); font-family: Helvetica; font-size: 13px; font-style: normal; font-variant-ligatures: normal; font-variant-caps: normal; font-weight: 400; letter-spacing: normal; orphans: 2; text-align: center; text-indent: 0px; text-transform: none; widows: 2; word-spacing: 0px; -webkit-text-stroke-width: 0px; background-color: rgb(248, 249, 250); text-decoration-thickness: initial; text-decoration-style: initial; text-decoration-color: initial; float: none; display: inline !important;&quot;&gt;salary&lt;/span&gt;" style="text;whiteSpace=wrap;html=1;fontSize=13;fontFamily=Helvetica;fontColor=default;" parent="1" vertex="1">
          <mxGeometry x="640" y="179.5" width="50" height="20" as="geometry" />
        </mxCell>
        <mxCell id="gJ5ldzgGzaQahjb0mv15-8" style="edgeStyle=orthogonalEdgeStyle;shape=connector;rounded=1;orthogonalLoop=1;jettySize=auto;html=1;labelBackgroundColor=default;strokeColor=default;fontFamily=Helvetica;fontSize=11;fontColor=default;endArrow=none;endFill=0;fillColor=none;" parent="1" edge="1">
          <mxGeometry relative="1" as="geometry">
            <mxPoint x="697" y="135" as="targetPoint" />
          </mxGeometry>
        </mxCell>
        <mxCell id="25Zu7PeEIxpEX03kHfXG-7" style="edgeStyle=orthogonalEdgeStyle;shape=connector;rounded=1;orthogonalLoop=1;jettySize=auto;html=1;entryX=0.813;entryY=-0.002;entryDx=0;entryDy=0;entryPerimeter=0;labelBackgroundColor=default;strokeColor=default;fontFamily=Helvetica;fontSize=13;fontColor=default;endArrow=none;endFill=0;fillColor=none;" parent="1" source="25Zu7PeEIxpEX03kHfXG-6" target="1nyOireFhNk5vsuvswtc-6" edge="1">
          <mxGeometry relative="1" as="geometry" />
        </mxCell>
        <mxCell id="25Zu7PeEIxpEX03kHfXG-6" value="" style="ellipse;whiteSpace=wrap;html=1;fontSize=13;rounded=0;fillColor=#FFFFFF;" parent="1" vertex="1">
          <mxGeometry x="625" y="740" width="15" height="15" as="geometry" />
        </mxCell>
        <mxCell id="25Zu7PeEIxpEX03kHfXG-8" value="appearances" style="text;html=1;align=center;verticalAlign=middle;resizable=0;points=[];autosize=1;strokeColor=none;fillColor=none;fontSize=13;fontFamily=Helvetica;fontColor=default;" parent="1" vertex="1">
          <mxGeometry x="590" y="712.5" width="100" height="30" as="geometry" />
        </mxCell>
        <mxCell id="w1rOjMdurzv241d1_XQd-64" style="edgeStyle=orthogonalEdgeStyle;shape=connector;rounded=1;orthogonalLoop=1;jettySize=auto;html=1;labelBackgroundColor=default;strokeColor=default;fontFamily=Helvetica;fontSize=11;fontColor=default;endArrow=none;endFill=0;fillColor=none;entryX=1.004;entryY=0.8;entryDx=0;entryDy=0;entryPerimeter=0;" parent="1" source="w1rOjMdurzv241d1_XQd-1" target="1nyOireFhNk5vsuvswtc-47" edge="1">
          <mxGeometry relative="1" as="geometry">
            <mxPoint x="1490.07" y="824.5" as="targetPoint" />
          </mxGeometry>
        </mxCell>
        <mxCell id="w1rOjMdurzv241d1_XQd-1" value="" style="ellipse;whiteSpace=wrap;html=1;fontSize=13;rounded=0;fillColor=none;" parent="1" vertex="1">
          <mxGeometry x="1517.57" y="817" width="15" height="15" as="geometry" />
        </mxCell>
        <mxCell id="w1rOjMdurzv241d1_XQd-5" value="sponsorID" style="text;html=1;align=center;verticalAlign=middle;resizable=0;points=[];autosize=1;strokeColor=none;fillColor=none;" parent="1" vertex="1">
          <mxGeometry x="1522.57" y="767" width="80" height="30" as="geometry" />
        </mxCell>
        <mxCell id="w1rOjMdurzv241d1_XQd-12" value="" style="ellipse;whiteSpace=wrap;html=1;fontSize=13;rounded=0;" parent="1" vertex="1">
          <mxGeometry x="320" y="874.5" width="15" height="15" as="geometry" />
        </mxCell>
        <mxCell id="w1rOjMdurzv241d1_XQd-13" value="nationality" style="text;html=1;align=center;verticalAlign=middle;resizable=0;points=[];autosize=1;strokeColor=none;fillColor=none;" parent="1" vertex="1">
          <mxGeometry x="287.5" y="885" width="80" height="30" as="geometry" />
        </mxCell>
        <mxCell id="WEIgRbPyTQdyQePMtLrC-75" style="edgeStyle=orthogonalEdgeStyle;shape=connector;rounded=1;orthogonalLoop=1;jettySize=auto;html=1;entryX=0.866;entryY=0.988;entryDx=0;entryDy=0;entryPerimeter=0;labelBackgroundColor=default;strokeColor=default;fontFamily=Helvetica;fontSize=13;fontColor=default;endArrow=none;endFill=0;fillColor=none;" parent="1" source="w1rOjMdurzv241d1_XQd-15" target="1nyOireFhNk5vsuvswtc-47" edge="1">
          <mxGeometry relative="1" as="geometry" />
        </mxCell>
        <mxCell id="w1rOjMdurzv241d1_XQd-15" value="" style="ellipse;whiteSpace=wrap;html=1;fontSize=13;rounded=0;" parent="1" vertex="1">
          <mxGeometry x="1463.82" y="871.5" width="15" height="15" as="geometry" />
        </mxCell>
        <mxCell id="w1rOjMdurzv241d1_XQd-16" value="foundationYear" style="text;html=1;align=center;verticalAlign=middle;resizable=0;points=[];autosize=1;strokeColor=none;fillColor=none;" parent="1" vertex="1">
          <mxGeometry x="1427.57" y="879" width="100" height="30" as="geometry" />
        </mxCell>
        <mxCell id="w1rOjMdurzv241d1_XQd-18" value="industry" style="text;html=1;align=center;verticalAlign=middle;resizable=0;points=[];autosize=1;strokeColor=none;fillColor=none;" parent="1" vertex="1">
          <mxGeometry x="1347.57" y="879" width="70" height="30" as="geometry" />
        </mxCell>
        <mxCell id="w1rOjMdurzv241d1_XQd-19" value="" style="ellipse;whiteSpace=wrap;html=1;fontSize=13;rounded=0;" parent="1" vertex="1">
          <mxGeometry x="1376.32" y="871.5" width="15" height="15" as="geometry" />
        </mxCell>
        <mxCell id="w1rOjMdurzv241d1_XQd-62" value="" style="ellipse;whiteSpace=wrap;html=1;fontSize=13;rounded=0;fillColor=none;" parent="1" vertex="1">
          <mxGeometry x="1600" y="205" width="10" as="geometry" />
        </mxCell>
        <mxCell id="WEIgRbPyTQdyQePMtLrC-12" style="edgeStyle=orthogonalEdgeStyle;shape=connector;rounded=1;orthogonalLoop=1;jettySize=auto;html=1;entryX=1;entryY=0.5;entryDx=0;entryDy=0;labelBackgroundColor=default;strokeColor=default;fontFamily=Helvetica;fontSize=13;fontColor=default;endArrow=none;endFill=0;fillColor=none;" parent="1" source="WEIgRbPyTQdyQePMtLrC-9" target="1nyOireFhNk5vsuvswtc-6" edge="1">
          <mxGeometry relative="1" as="geometry" />
        </mxCell>
        <mxCell id="WEIgRbPyTQdyQePMtLrC-17" style="edgeStyle=orthogonalEdgeStyle;shape=connector;rounded=1;orthogonalLoop=1;jettySize=auto;html=1;entryX=0;entryY=0.5;entryDx=0;entryDy=0;labelBackgroundColor=default;strokeColor=default;fontFamily=Helvetica;fontSize=13;fontColor=default;endArrow=none;endFill=0;fillColor=none;exitX=0.5;exitY=0;exitDx=0;exitDy=0;" parent="1" source="WEIgRbPyTQdyQePMtLrC-9" target="PQA37V6N7CLmbWVco3Oz-64" edge="1">
          <mxGeometry relative="1" as="geometry" />
        </mxCell>
        <mxCell id="WEIgRbPyTQdyQePMtLrC-9" value="HasCaptainRole" style="rhombus;whiteSpace=wrap;html=1;fontSize=13;fillColor=#1ba1e2;strokeColor=#006EAF;fontColor=#ffffff;rounded=0;" parent="1" vertex="1">
          <mxGeometry x="777.5" y="565" width="105" height="98.75" as="geometry" />
        </mxCell>
        <mxCell id="WEIgRbPyTQdyQePMtLrC-16" value="startDate" style="text;html=1;align=center;verticalAlign=middle;resizable=0;points=[];autosize=1;strokeColor=none;fillColor=none;fontSize=13;fontFamily=Helvetica;fontColor=default;" parent="1" vertex="1">
          <mxGeometry x="913.5" y="429.5" width="80" height="30" as="geometry" />
        </mxCell>
        <mxCell id="WEIgRbPyTQdyQePMtLrC-27" value="endDate" style="text;html=1;align=center;verticalAlign=middle;resizable=0;points=[];autosize=1;strokeColor=none;fillColor=none;fontSize=13;fontFamily=Helvetica;fontColor=default;" parent="1" vertex="1">
          <mxGeometry x="1013.5" y="429.5" width="70" height="30" as="geometry" />
        </mxCell>
        <mxCell id="WEIgRbPyTQdyQePMtLrC-122" style="edgeStyle=orthogonalEdgeStyle;shape=connector;rounded=1;orthogonalLoop=1;jettySize=auto;html=1;entryX=0.062;entryY=0.997;entryDx=0;entryDy=0;entryPerimeter=0;labelBackgroundColor=default;strokeColor=default;fontFamily=Helvetica;fontSize=13;fontColor=default;endArrow=none;endFill=0;fillColor=none;" parent="1" source="WEIgRbPyTQdyQePMtLrC-29" target="1nyOireFhNk5vsuvswtc-14" edge="1">
          <mxGeometry relative="1" as="geometry" />
        </mxCell>
        <mxCell id="WEIgRbPyTQdyQePMtLrC-29" value="" style="ellipse;whiteSpace=wrap;html=1;fontSize=13;rounded=0;" parent="1" vertex="1">
          <mxGeometry x="540" y="319.5" width="15" height="15" as="geometry" />
        </mxCell>
        <mxCell id="WEIgRbPyTQdyQePMtLrC-30" value="position" style="text;html=1;align=center;verticalAlign=middle;resizable=0;points=[];autosize=1;strokeColor=none;fillColor=none;fontSize=13;fontFamily=Helvetica;fontColor=default;" parent="1" vertex="1">
          <mxGeometry x="562.5" y="327" width="70" height="30" as="geometry" />
        </mxCell>
        <mxCell id="WEIgRbPyTQdyQePMtLrC-36" style="edgeStyle=orthogonalEdgeStyle;shape=connector;rounded=1;orthogonalLoop=1;jettySize=auto;html=1;labelBackgroundColor=default;strokeColor=default;fontFamily=Helvetica;fontSize=13;fontColor=default;endArrow=none;endFill=0;fillColor=none;" parent="1" source="WEIgRbPyTQdyQePMtLrC-33" target="WEIgRbPyTQdyQePMtLrC-35" edge="1">
          <mxGeometry relative="1" as="geometry" />
        </mxCell>
        <mxCell id="EB96sz4gFDCfG6SzcCJD-26" style="edgeStyle=orthogonalEdgeStyle;shape=connector;rounded=1;orthogonalLoop=1;jettySize=auto;html=1;entryX=0.517;entryY=1.012;entryDx=0;entryDy=0;entryPerimeter=0;labelBackgroundColor=default;strokeColor=default;fontFamily=Helvetica;fontSize=13;fontColor=#ffffff;endArrow=none;endFill=0;fillColor=none;" parent="1" source="WEIgRbPyTQdyQePMtLrC-33" target="1nyOireFhNk5vsuvswtc-23" edge="1">
          <mxGeometry relative="1" as="geometry" />
        </mxCell>
        <mxCell id="WEIgRbPyTQdyQePMtLrC-33" value="HasTsponsorship" style="rhombus;whiteSpace=wrap;html=1;fontSize=13;fillColor=#1ba1e2;fontColor=#ffffff;strokeColor=#006EAF;" parent="1" vertex="1">
          <mxGeometry x="1367.57" y="345.49" width="122.43" height="107.01" as="geometry" />
        </mxCell>
        <mxCell id="WEIgRbPyTQdyQePMtLrC-35" value="T-Sponsorship" style="rounded=0;whiteSpace=wrap;html=1;fontFamily=Helvetica;fontSize=13;fontColor=#ffffff;fillColor=#1ba1e2;strokeColor=#006EAF;" parent="1" vertex="1">
          <mxGeometry x="1368.79" y="497" width="120" height="60" as="geometry" />
        </mxCell>
        <mxCell id="WEIgRbPyTQdyQePMtLrC-39" style="edgeStyle=orthogonalEdgeStyle;shape=connector;rounded=1;orthogonalLoop=1;jettySize=auto;html=1;entryX=0.5;entryY=1;entryDx=0;entryDy=0;labelBackgroundColor=default;strokeColor=default;fontFamily=Helvetica;fontSize=13;fontColor=default;endArrow=none;endFill=0;fillColor=none;" parent="1" source="WEIgRbPyTQdyQePMtLrC-38" target="WEIgRbPyTQdyQePMtLrC-35" edge="1">
          <mxGeometry relative="1" as="geometry" />
        </mxCell>
        <mxCell id="WEIgRbPyTQdyQePMtLrC-40" style="edgeStyle=orthogonalEdgeStyle;shape=connector;rounded=1;orthogonalLoop=1;jettySize=auto;html=1;entryX=0.5;entryY=0;entryDx=0;entryDy=0;labelBackgroundColor=default;strokeColor=default;fontFamily=Helvetica;fontSize=13;fontColor=default;endArrow=none;endFill=0;fillColor=none;" parent="1" source="WEIgRbPyTQdyQePMtLrC-38" target="1nyOireFhNk5vsuvswtc-47" edge="1">
          <mxGeometry relative="1" as="geometry" />
        </mxCell>
        <mxCell id="WEIgRbPyTQdyQePMtLrC-38" value="TeamWithSponsor" style="rhombus;whiteSpace=wrap;html=1;fontSize=13;fillColor=#1ba1e2;strokeColor=#006EAF;fontColor=#ffffff;rounded=0;" parent="1" vertex="1">
          <mxGeometry x="1367.54" y="605" width="122.46" height="104.34" as="geometry" />
        </mxCell>
        <mxCell id="WEIgRbPyTQdyQePMtLrC-50" style="edgeStyle=orthogonalEdgeStyle;shape=connector;rounded=1;orthogonalLoop=1;jettySize=auto;html=1;entryX=0.195;entryY=0.499;entryDx=0;entryDy=0;entryPerimeter=0;labelBackgroundColor=default;strokeColor=default;fontFamily=Helvetica;fontSize=13;fontColor=default;endArrow=none;endFill=0;fillColor=none;" parent="1" source="WEIgRbPyTQdyQePMtLrC-44" target="WEIgRbPyTQdyQePMtLrC-49" edge="1">
          <mxGeometry relative="1" as="geometry" />
        </mxCell>
        <mxCell id="WEIgRbPyTQdyQePMtLrC-44" value="P-Sponsorship" style="rounded=0;whiteSpace=wrap;html=1;fontSize=13;fillColor=#1ba1e2;fontColor=#ffffff;strokeColor=#006EAF;" parent="1" vertex="1">
          <mxGeometry x="950" y="779.5" width="120" height="60" as="geometry" />
        </mxCell>
        <mxCell id="WEIgRbPyTQdyQePMtLrC-48" style="edgeStyle=orthogonalEdgeStyle;shape=connector;rounded=1;orthogonalLoop=1;jettySize=auto;html=1;labelBackgroundColor=default;strokeColor=default;fontFamily=Helvetica;fontSize=13;fontColor=default;endArrow=none;endFill=0;fillColor=none;" parent="1" source="WEIgRbPyTQdyQePMtLrC-46" target="WEIgRbPyTQdyQePMtLrC-44" edge="1">
          <mxGeometry relative="1" as="geometry" />
        </mxCell>
        <mxCell id="WEIgRbPyTQdyQePMtLrC-46" value="HasPSponsorship" style="rhombus;whiteSpace=wrap;html=1;fontSize=13;fillColor=#1ba1e2;strokeColor=#006EAF;fontColor=#ffffff;rounded=0;" parent="1" vertex="1">
          <mxGeometry x="760" y="752.26" width="140" height="114.5" as="geometry" />
        </mxCell>
        <mxCell id="WEIgRbPyTQdyQePMtLrC-94" style="edgeStyle=orthogonalEdgeStyle;shape=connector;rounded=1;orthogonalLoop=1;jettySize=auto;html=1;entryX=0.015;entryY=0.564;entryDx=0;entryDy=0;entryPerimeter=0;labelBackgroundColor=default;strokeColor=default;fontFamily=Helvetica;fontSize=13;fontColor=default;endArrow=none;endFill=0;fillColor=none;" parent="1" source="WEIgRbPyTQdyQePMtLrC-49" target="1nyOireFhNk5vsuvswtc-47" edge="1">
          <mxGeometry relative="1" as="geometry" />
        </mxCell>
        <mxCell id="WEIgRbPyTQdyQePMtLrC-49" value="PlayerWithSponsor" style="rhombus;whiteSpace=wrap;html=1;fontSize=13;fillColor=#1ba1e2;strokeColor=#006EAF;fontColor=#ffffff;rounded=0;" parent="1" vertex="1">
          <mxGeometry x="1160" y="759.44" width="130" height="100.13" as="geometry" />
        </mxCell>
        <mxCell id="EB96sz4gFDCfG6SzcCJD-11" style="edgeStyle=orthogonalEdgeStyle;shape=connector;rounded=1;orthogonalLoop=1;jettySize=auto;html=1;entryX=0.947;entryY=0.005;entryDx=0;entryDy=0;entryPerimeter=0;labelBackgroundColor=default;strokeColor=default;fontFamily=Helvetica;fontSize=13;fontColor=#ffffff;endArrow=none;endFill=0;fillColor=none;" parent="1" source="WEIgRbPyTQdyQePMtLrC-53" target="WEIgRbPyTQdyQePMtLrC-44" edge="1">
          <mxGeometry relative="1" as="geometry" />
        </mxCell>
        <mxCell id="WEIgRbPyTQdyQePMtLrC-53" value="" style="ellipse;whiteSpace=wrap;html=1;fontSize=13;rounded=0;fillColor=#FFFFFF;" parent="1" vertex="1">
          <mxGeometry x="1056" y="727.5" width="15" height="15" as="geometry" />
        </mxCell>
        <mxCell id="WEIgRbPyTQdyQePMtLrC-142" style="edgeStyle=orthogonalEdgeStyle;shape=connector;rounded=1;orthogonalLoop=1;jettySize=auto;html=1;entryX=0.5;entryY=1;entryDx=0;entryDy=0;labelBackgroundColor=default;strokeColor=default;fontFamily=Helvetica;fontSize=13;fontColor=#ffffff;endArrow=none;endFill=0;fillColor=none;" parent="1" source="WEIgRbPyTQdyQePMtLrC-58" target="WEIgRbPyTQdyQePMtLrC-44" edge="1">
          <mxGeometry relative="1" as="geometry" />
        </mxCell>
        <mxCell id="WEIgRbPyTQdyQePMtLrC-58" value="" style="ellipse;whiteSpace=wrap;html=1;fontSize=13;rounded=0;" parent="1" vertex="1">
          <mxGeometry x="1002.5" y="879" width="15" height="15" as="geometry" />
        </mxCell>
        <mxCell id="WEIgRbPyTQdyQePMtLrC-62" style="edgeStyle=orthogonalEdgeStyle;shape=connector;rounded=1;orthogonalLoop=1;jettySize=auto;html=1;entryX=0.146;entryY=1;entryDx=0;entryDy=0;entryPerimeter=0;labelBackgroundColor=default;strokeColor=default;fontFamily=Helvetica;fontSize=13;fontColor=default;endArrow=none;endFill=0;fillColor=none;" parent="1" edge="1">
          <mxGeometry relative="1" as="geometry">
            <Array as="points">
              <mxPoint x="327.5" y="850.5" />
              <mxPoint x="327.5" y="850.5" />
            </Array>
            <mxPoint x="327.5" y="875" as="sourcePoint" />
            <mxPoint x="327.5" y="840" as="targetPoint" />
          </mxGeometry>
        </mxCell>
        <mxCell id="WEIgRbPyTQdyQePMtLrC-69" style="edgeStyle=orthogonalEdgeStyle;shape=connector;rounded=1;orthogonalLoop=1;jettySize=auto;html=1;entryX=0.146;entryY=1;entryDx=0;entryDy=0;entryPerimeter=0;labelBackgroundColor=default;strokeColor=default;fontFamily=Helvetica;fontSize=13;fontColor=default;endArrow=none;endFill=0;fillColor=none;" parent="1" edge="1">
          <mxGeometry relative="1" as="geometry">
            <Array as="points">
              <mxPoint x="1383.07" y="847" />
              <mxPoint x="1383.07" y="847" />
            </Array>
            <mxPoint x="1382.8799999999999" y="872.5" as="sourcePoint" />
            <mxPoint x="1382.57" y="837" as="targetPoint" />
          </mxGeometry>
        </mxCell>
        <mxCell id="WEIgRbPyTQdyQePMtLrC-143" style="edgeStyle=orthogonalEdgeStyle;shape=connector;rounded=1;orthogonalLoop=1;jettySize=auto;html=1;entryX=0.938;entryY=1.004;entryDx=0;entryDy=0;entryPerimeter=0;labelBackgroundColor=default;strokeColor=default;fontFamily=Helvetica;fontSize=13;fontColor=#ffffff;endArrow=none;endFill=0;fillColor=none;" parent="1" source="WEIgRbPyTQdyQePMtLrC-76" target="WEIgRbPyTQdyQePMtLrC-44" edge="1">
          <mxGeometry relative="1" as="geometry" />
        </mxCell>
        <mxCell id="WEIgRbPyTQdyQePMtLrC-76" value="" style="ellipse;whiteSpace=wrap;html=1;fontSize=13;rounded=0;fillColor=#FFFFFF;" parent="1" vertex="1">
          <mxGeometry x="1055" y="879" width="15" height="15" as="geometry" />
        </mxCell>
        <mxCell id="WEIgRbPyTQdyQePMtLrC-81" style="edgeStyle=orthogonalEdgeStyle;shape=connector;rounded=1;orthogonalLoop=1;jettySize=auto;html=1;entryX=0.998;entryY=0.124;entryDx=0;entryDy=0;entryPerimeter=0;labelBackgroundColor=default;strokeColor=default;fontFamily=Helvetica;fontSize=13;fontColor=default;endArrow=none;endFill=0;fillColor=none;" parent="1" source="WEIgRbPyTQdyQePMtLrC-80" target="WEIgRbPyTQdyQePMtLrC-35" edge="1">
          <mxGeometry relative="1" as="geometry" />
        </mxCell>
        <mxCell id="WEIgRbPyTQdyQePMtLrC-80" value="" style="ellipse;whiteSpace=wrap;html=1;fontSize=13;rounded=0;fillColor=#FFFFFF;" parent="1" vertex="1">
          <mxGeometry x="1517.57" y="497" width="15" height="15" as="geometry" />
        </mxCell>
        <mxCell id="WEIgRbPyTQdyQePMtLrC-86" style="edgeStyle=orthogonalEdgeStyle;shape=connector;rounded=1;orthogonalLoop=1;jettySize=auto;html=1;entryX=1;entryY=0.5;entryDx=0;entryDy=0;labelBackgroundColor=default;strokeColor=default;fontFamily=Helvetica;fontSize=13;fontColor=default;endArrow=none;endFill=0;fillColor=none;" parent="1" source="WEIgRbPyTQdyQePMtLrC-82" target="WEIgRbPyTQdyQePMtLrC-35" edge="1">
          <mxGeometry relative="1" as="geometry" />
        </mxCell>
        <mxCell id="WEIgRbPyTQdyQePMtLrC-82" value="" style="ellipse;whiteSpace=wrap;html=1;fontSize=13;rounded=0;" parent="1" vertex="1">
          <mxGeometry x="1517.57" y="519.5" width="15" height="15" as="geometry" />
        </mxCell>
        <mxCell id="WEIgRbPyTQdyQePMtLrC-85" style="edgeStyle=orthogonalEdgeStyle;shape=connector;rounded=1;orthogonalLoop=1;jettySize=auto;html=1;entryX=1.006;entryY=0.876;entryDx=0;entryDy=0;entryPerimeter=0;labelBackgroundColor=default;strokeColor=default;fontFamily=Helvetica;fontSize=13;fontColor=default;endArrow=none;endFill=0;fillColor=none;" parent="1" source="WEIgRbPyTQdyQePMtLrC-83" target="WEIgRbPyTQdyQePMtLrC-35" edge="1">
          <mxGeometry relative="1" as="geometry" />
        </mxCell>
        <mxCell id="WEIgRbPyTQdyQePMtLrC-83" value="" style="ellipse;whiteSpace=wrap;html=1;fontSize=13;rounded=0;" parent="1" vertex="1">
          <mxGeometry x="1517.57" y="542" width="15" height="15" as="geometry" />
        </mxCell>
        <mxCell id="WEIgRbPyTQdyQePMtLrC-88" value="startDate" style="text;html=1;align=center;verticalAlign=middle;resizable=0;points=[];autosize=1;strokeColor=none;fillColor=none;fontSize=13;fontFamily=Helvetica;fontColor=default;" parent="1" vertex="1">
          <mxGeometry x="1522.57" y="489.5" width="80" height="30" as="geometry" />
        </mxCell>
        <mxCell id="WEIgRbPyTQdyQePMtLrC-89" value="endDate" style="text;html=1;align=center;verticalAlign=middle;resizable=0;points=[];autosize=1;strokeColor=none;fillColor=none;fontSize=13;fontFamily=Helvetica;fontColor=default;" parent="1" vertex="1">
          <mxGeometry x="1527.57" y="512" width="70" height="30" as="geometry" />
        </mxCell>
        <mxCell id="WEIgRbPyTQdyQePMtLrC-90" value="type" style="text;html=1;align=center;verticalAlign=middle;resizable=0;points=[];autosize=1;strokeColor=none;fillColor=none;fontSize=13;fontFamily=Helvetica;fontColor=default;" parent="1" vertex="1">
          <mxGeometry x="1527.57" y="534.5" width="50" height="30" as="geometry" />
        </mxCell>
        <mxCell id="WEIgRbPyTQdyQePMtLrC-96" value="(1,1)" style="text;html=1;align=center;verticalAlign=middle;resizable=0;points=[];autosize=1;strokeColor=none;fillColor=none;fontSize=13;fontFamily=Helvetica;fontColor=default;" parent="1" vertex="1">
          <mxGeometry x="867.5" y="504.5" width="50" height="30" as="geometry" />
        </mxCell>
        <mxCell id="WEIgRbPyTQdyQePMtLrC-97" value="(0,n)" style="text;html=1;align=center;verticalAlign=middle;resizable=0;points=[];autosize=1;strokeColor=none;fillColor=none;fontSize=13;fontFamily=Helvetica;fontColor=default;" parent="1" vertex="1">
          <mxGeometry x="730" y="585.59" width="50" height="30" as="geometry" />
        </mxCell>
        <mxCell id="WEIgRbPyTQdyQePMtLrC-99" value="(1,1)" style="text;html=1;align=center;verticalAlign=middle;resizable=0;points=[];autosize=1;strokeColor=none;fillColor=none;fontSize=13;fontFamily=Helvetica;fontColor=default;" parent="1" vertex="1">
          <mxGeometry x="1076" y="504.5" width="50" height="30" as="geometry" />
        </mxCell>
        <mxCell id="WEIgRbPyTQdyQePMtLrC-101" value="(0,n)" style="text;html=1;align=center;verticalAlign=middle;resizable=0;points=[];autosize=1;strokeColor=none;fillColor=none;fontSize=13;fontFamily=Helvetica;fontColor=default;" parent="1" vertex="1">
          <mxGeometry x="1262.5" y="504.5" width="50" height="30" as="geometry" />
        </mxCell>
        <mxCell id="WEIgRbPyTQdyQePMtLrC-102" value="(0,n)" style="text;html=1;align=center;verticalAlign=middle;resizable=0;points=[];autosize=1;strokeColor=none;fillColor=none;fontSize=13;fontFamily=Helvetica;fontColor=default;" parent="1" vertex="1">
          <mxGeometry x="720" y="782.5" width="50" height="30" as="geometry" />
        </mxCell>
        <mxCell id="WEIgRbPyTQdyQePMtLrC-103" value="(0,n)" style="text;html=1;align=center;verticalAlign=middle;resizable=0;points=[];autosize=1;strokeColor=none;fillColor=none;fontSize=13;fontFamily=Helvetica;fontColor=default;" parent="1" vertex="1">
          <mxGeometry x="1417.57" y="749.5" width="50" height="30" as="geometry" />
        </mxCell>
        <mxCell id="WEIgRbPyTQdyQePMtLrC-104" value="(0,n)" style="text;html=1;align=center;verticalAlign=middle;resizable=0;points=[];autosize=1;strokeColor=none;fillColor=none;fontSize=13;fontFamily=Helvetica;fontColor=default;" parent="1" vertex="1">
          <mxGeometry x="1417.57" y="289.5" width="50" height="30" as="geometry" />
        </mxCell>
        <mxCell id="WEIgRbPyTQdyQePMtLrC-105" value="(1,1)" style="text;html=1;align=center;verticalAlign=middle;resizable=0;points=[];autosize=1;strokeColor=none;fillColor=none;fontSize=13;fontFamily=Helvetica;fontColor=default;" parent="1" vertex="1">
          <mxGeometry x="1417.57" y="577.5" width="50" height="30" as="geometry" />
        </mxCell>
        <mxCell id="WEIgRbPyTQdyQePMtLrC-106" value="(0,n)" style="text;html=1;align=center;verticalAlign=middle;resizable=0;points=[];autosize=1;strokeColor=none;fillColor=none;fontSize=13;fontFamily=Helvetica;fontColor=default;" parent="1" vertex="1">
          <mxGeometry x="1326.32" y="782.5" width="50" height="30" as="geometry" />
        </mxCell>
        <mxCell id="WEIgRbPyTQdyQePMtLrC-107" value="(1,1)" style="text;html=1;align=center;verticalAlign=middle;resizable=0;points=[];autosize=1;strokeColor=none;fillColor=none;fontSize=13;fontFamily=Helvetica;fontColor=default;" parent="1" vertex="1">
          <mxGeometry x="1120" y="782.5" width="50" height="30" as="geometry" />
        </mxCell>
        <mxCell id="WEIgRbPyTQdyQePMtLrC-108" value="(1,n)" style="text;html=1;align=center;verticalAlign=middle;resizable=0;points=[];autosize=1;strokeColor=none;fillColor=none;fontSize=13;fontFamily=Helvetica;fontColor=default;" parent="1" vertex="1">
          <mxGeometry x="1417.57" y="472.32" width="50" height="30" as="geometry" />
        </mxCell>
        <mxCell id="WEIgRbPyTQdyQePMtLrC-109" value="(1,n)" style="text;html=1;align=center;verticalAlign=middle;resizable=0;points=[];autosize=1;strokeColor=none;fillColor=none;fontSize=13;fontFamily=Helvetica;fontColor=default;" parent="1" vertex="1">
          <mxGeometry x="909" y="787" width="50" height="30" as="geometry" />
        </mxCell>
        <mxCell id="WEIgRbPyTQdyQePMtLrC-120" style="edgeStyle=orthogonalEdgeStyle;shape=connector;rounded=1;orthogonalLoop=1;jettySize=auto;html=1;entryX=0.939;entryY=0.999;entryDx=0;entryDy=0;entryPerimeter=0;labelBackgroundColor=default;strokeColor=default;fontFamily=Helvetica;fontSize=13;fontColor=default;endArrow=none;endFill=0;fillColor=none;" parent="1" source="WEIgRbPyTQdyQePMtLrC-113" target="1nyOireFhNk5vsuvswtc-14" edge="1">
          <mxGeometry relative="1" as="geometry" />
        </mxCell>
        <mxCell id="WEIgRbPyTQdyQePMtLrC-113" value="" style="ellipse;whiteSpace=wrap;html=1;fontSize=13;rounded=0;" parent="1" vertex="1">
          <mxGeometry x="645" y="319.5" width="15" height="15" as="geometry" />
        </mxCell>
        <mxCell id="WEIgRbPyTQdyQePMtLrC-117" value="jerseyNumber" style="text;html=1;align=center;verticalAlign=middle;resizable=0;points=[];autosize=1;strokeColor=none;fillColor=none;fontSize=13;fontFamily=Helvetica;fontColor=default;" parent="1" vertex="1">
          <mxGeometry x="710" y="270" width="100" height="30" as="geometry" />
        </mxCell>
        <mxCell id="WEIgRbPyTQdyQePMtLrC-119" value="(0,1)" style="text;html=1;align=center;verticalAlign=middle;resizable=0;points=[];autosize=1;strokeColor=none;fillColor=none;fontSize=13;fontFamily=Helvetica;fontColor=default;" parent="1" vertex="1">
          <mxGeometry x="655" y="280" width="50" height="30" as="geometry" />
        </mxCell>
        <mxCell id="WEIgRbPyTQdyQePMtLrC-123" style="edgeStyle=orthogonalEdgeStyle;shape=connector;rounded=1;orthogonalLoop=1;jettySize=auto;html=1;entryX=1.004;entryY=0.879;entryDx=0;entryDy=0;entryPerimeter=0;labelBackgroundColor=default;strokeColor=default;fontFamily=Helvetica;fontSize=13;fontColor=default;endArrow=none;endFill=0;fillColor=none;" parent="1" source="WEIgRbPyTQdyQePMtLrC-121" target="1nyOireFhNk5vsuvswtc-14" edge="1">
          <mxGeometry relative="1" as="geometry" />
        </mxCell>
        <mxCell id="WEIgRbPyTQdyQePMtLrC-121" value="" style="ellipse;whiteSpace=wrap;html=1;fontSize=13;rounded=0;fillColor=#FFFFFF;" parent="1" vertex="1">
          <mxGeometry x="695" y="280" width="15" height="15" as="geometry" />
        </mxCell>
        <mxCell id="WEIgRbPyTQdyQePMtLrC-125" value="&lt;span style=&quot;color: rgb(0, 0, 0); font-family: Helvetica; font-size: 13px; font-style: normal; font-variant-ligatures: normal; font-variant-caps: normal; font-weight: 400; letter-spacing: normal; orphans: 2; text-align: center; text-indent: 0px; text-transform: none; widows: 2; word-spacing: 0px; -webkit-text-stroke-width: 0px; background-color: rgb(248, 249, 250); text-decoration-thickness: initial; text-decoration-style: initial; text-decoration-color: initial; float: none; display: inline !important;&quot;&gt;contractID&lt;/span&gt;" style="text;whiteSpace=wrap;html=1;fontSize=13;fontFamily=Helvetica;fontColor=default;" parent="1" vertex="1">
          <mxGeometry x="510" y="179.5" width="60" height="20" as="geometry" />
        </mxCell>
        <mxCell id="WEIgRbPyTQdyQePMtLrC-134" style="edgeStyle=orthogonalEdgeStyle;shape=connector;rounded=1;orthogonalLoop=1;jettySize=auto;html=1;entryX=0.481;entryY=0.99;entryDx=0;entryDy=0;entryPerimeter=0;labelBackgroundColor=default;strokeColor=default;fontFamily=Helvetica;fontSize=13;fontColor=#ffffff;endArrow=none;endFill=0;fillColor=none;" parent="1" source="WEIgRbPyTQdyQePMtLrC-133" target="1nyOireFhNk5vsuvswtc-14" edge="1">
          <mxGeometry relative="1" as="geometry" />
        </mxCell>
        <mxCell id="WEIgRbPyTQdyQePMtLrC-133" value="" style="ellipse;whiteSpace=wrap;html=1;fontSize=13;rounded=0;" parent="1" vertex="1">
          <mxGeometry x="590" y="319.5" width="15" height="15" as="geometry" />
        </mxCell>
        <mxCell id="EB96sz4gFDCfG6SzcCJD-6" style="edgeStyle=orthogonalEdgeStyle;shape=connector;rounded=1;orthogonalLoop=1;jettySize=auto;html=1;entryX=0.862;entryY=0.007;entryDx=0;entryDy=0;entryPerimeter=0;labelBackgroundColor=default;strokeColor=default;fontFamily=Helvetica;fontSize=13;fontColor=#ffffff;endArrow=none;endFill=0;fillColor=none;" parent="1" source="WEIgRbPyTQdyQePMtLrC-138" target="PQA37V6N7CLmbWVco3Oz-64" edge="1">
          <mxGeometry relative="1" as="geometry" />
        </mxCell>
        <mxCell id="WEIgRbPyTQdyQePMtLrC-138" value="" style="ellipse;whiteSpace=wrap;html=1;fontSize=13;rounded=0;" parent="1" vertex="1">
          <mxGeometry x="1041" y="459.5" width="15" height="15" as="geometry" />
        </mxCell>
        <mxCell id="WEIgRbPyTQdyQePMtLrC-145" style="edgeStyle=orthogonalEdgeStyle;shape=connector;rounded=1;orthogonalLoop=1;jettySize=auto;html=1;entryX=0.061;entryY=1.011;entryDx=0;entryDy=0;entryPerimeter=0;labelBackgroundColor=default;strokeColor=default;fontFamily=Helvetica;fontSize=13;fontColor=#ffffff;endArrow=none;endFill=0;fillColor=none;" parent="1" source="WEIgRbPyTQdyQePMtLrC-144" target="WEIgRbPyTQdyQePMtLrC-44" edge="1">
          <mxGeometry relative="1" as="geometry" />
        </mxCell>
        <mxCell id="WEIgRbPyTQdyQePMtLrC-144" value="" style="ellipse;whiteSpace=wrap;html=1;fontSize=13;rounded=0;" parent="1" vertex="1">
          <mxGeometry x="950" y="879" width="15" height="15" as="geometry" />
        </mxCell>
        <mxCell id="WEIgRbPyTQdyQePMtLrC-149" value="pSponshorhipID" style="text;html=1;align=center;verticalAlign=middle;resizable=0;points=[];autosize=1;strokeColor=none;fillColor=none;fontSize=13;fontFamily=Helvetica;fontColor=default;" parent="1" vertex="1">
          <mxGeometry x="997.5" y="699.34" width="120" height="30" as="geometry" />
        </mxCell>
        <mxCell id="EB96sz4gFDCfG6SzcCJD-22" style="edgeStyle=orthogonalEdgeStyle;shape=connector;rounded=1;orthogonalLoop=1;jettySize=auto;html=1;entryX=0.053;entryY=0.99;entryDx=0;entryDy=0;entryPerimeter=0;labelBackgroundColor=default;strokeColor=default;fontFamily=Helvetica;fontSize=13;fontColor=#ffffff;endArrow=none;endFill=0;fillColor=none;" parent="1" source="WEIgRbPyTQdyQePMtLrC-150" target="WEIgRbPyTQdyQePMtLrC-35" edge="1">
          <mxGeometry relative="1" as="geometry" />
        </mxCell>
        <mxCell id="WEIgRbPyTQdyQePMtLrC-150" value="" style="ellipse;whiteSpace=wrap;html=1;fontSize=13;rounded=0;" parent="1" vertex="1">
          <mxGeometry x="1367.57" y="593.09" width="15" height="15" as="geometry" />
        </mxCell>
        <mxCell id="WEIgRbPyTQdyQePMtLrC-152" value="tSponshorshipID" style="text;html=1;align=center;verticalAlign=middle;resizable=0;points=[];autosize=1;strokeColor=none;fillColor=none;fontSize=13;fontFamily=Helvetica;fontColor=default;" parent="1" vertex="1">
          <mxGeometry x="1256.32" y="585.59" width="120" height="30" as="geometry" />
        </mxCell>
        <mxCell id="9HJKVk8Z4jdpPIGMLspv-1" value="(0,1)" style="text;html=1;align=center;verticalAlign=middle;resizable=0;points=[];autosize=1;strokeColor=none;fillColor=none;fontSize=13;fontFamily=Helvetica;fontColor=default;" parent="1" vertex="1">
          <mxGeometry x="555" y="289.5" width="50" height="30" as="geometry" />
        </mxCell>
        <mxCell id="EB96sz4gFDCfG6SzcCJD-5" style="edgeStyle=orthogonalEdgeStyle;shape=connector;rounded=1;orthogonalLoop=1;jettySize=auto;html=1;entryX=0.067;entryY=-0.011;entryDx=0;entryDy=0;entryPerimeter=0;labelBackgroundColor=default;strokeColor=default;fontFamily=Helvetica;fontSize=13;fontColor=#ffffff;endArrow=none;endFill=0;fillColor=none;" parent="1" source="EB96sz4gFDCfG6SzcCJD-2" target="PQA37V6N7CLmbWVco3Oz-64" edge="1">
          <mxGeometry relative="1" as="geometry" />
        </mxCell>
        <mxCell id="EB96sz4gFDCfG6SzcCJD-2" value="" style="ellipse;whiteSpace=wrap;html=1;fontSize=13;rounded=0;" parent="1" vertex="1">
          <mxGeometry x="946" y="459.5" width="15" height="15" as="geometry" />
        </mxCell>
        <mxCell id="EB96sz4gFDCfG6SzcCJD-7" value="" style="ellipse;whiteSpace=wrap;html=1;fontSize=13;rounded=0;fillColor=#000000;" parent="1" vertex="1">
          <mxGeometry x="970" y="479.82" width="15" height="15" as="geometry" />
        </mxCell>
        <mxCell id="EB96sz4gFDCfG6SzcCJD-8" value="" style="endArrow=none;html=1;rounded=1;labelBackgroundColor=default;strokeColor=default;fontFamily=Helvetica;fontSize=13;fontColor=#ffffff;fillColor=none;shape=connector;" parent="1" edge="1">
          <mxGeometry width="50" height="50" relative="1" as="geometry">
            <mxPoint x="920" y="490" as="sourcePoint" />
            <mxPoint x="970" y="489.5" as="targetPoint" />
          </mxGeometry>
        </mxCell>
        <mxCell id="EB96sz4gFDCfG6SzcCJD-9" value="" style="endArrow=none;html=1;rounded=1;labelBackgroundColor=default;strokeColor=default;fontFamily=Helvetica;fontSize=13;fontColor=#ffffff;fillColor=none;shape=connector;" parent="1" edge="1">
          <mxGeometry width="50" height="50" relative="1" as="geometry">
            <mxPoint x="920.5" y="542.5" as="sourcePoint" />
            <mxPoint x="920" y="489.5" as="targetPoint" />
          </mxGeometry>
        </mxCell>
        <mxCell id="EB96sz4gFDCfG6SzcCJD-12" value="" style="endArrow=none;html=1;rounded=1;labelBackgroundColor=default;strokeColor=default;fontFamily=Helvetica;fontSize=13;fontColor=#ffffff;fillColor=none;shape=connector;" parent="1" edge="1">
          <mxGeometry width="50" height="50" relative="1" as="geometry">
            <mxPoint x="1047.5" y="757.5" as="sourcePoint" />
            <mxPoint x="1117.5" y="757.5" as="targetPoint" />
          </mxGeometry>
        </mxCell>
        <mxCell id="EB96sz4gFDCfG6SzcCJD-13" value="" style="endArrow=none;html=1;rounded=1;labelBackgroundColor=default;strokeColor=default;fontFamily=Helvetica;fontSize=13;fontColor=#ffffff;fillColor=none;shape=connector;" parent="1" edge="1">
          <mxGeometry width="50" height="50" relative="1" as="geometry">
            <mxPoint x="1117.5" y="827.5" as="sourcePoint" />
            <mxPoint x="1117.5" y="757.5" as="targetPoint" />
          </mxGeometry>
        </mxCell>
        <mxCell id="EB96sz4gFDCfG6SzcCJD-14" value="" style="ellipse;whiteSpace=wrap;html=1;fontSize=13;rounded=0;fillColor=#000000;" parent="1" vertex="1">
          <mxGeometry x="1110" y="827.5" width="15" height="15" as="geometry" />
        </mxCell>
        <mxCell id="EB96sz4gFDCfG6SzcCJD-24" style="edgeStyle=orthogonalEdgeStyle;shape=connector;rounded=1;orthogonalLoop=1;jettySize=auto;html=1;labelBackgroundColor=default;strokeColor=default;fontFamily=Helvetica;fontSize=13;fontColor=#ffffff;endArrow=none;endFill=0;fillColor=none;" parent="1" source="EB96sz4gFDCfG6SzcCJD-20" edge="1">
          <mxGeometry relative="1" as="geometry">
            <mxPoint x="1360" y="572.4999999999999" as="targetPoint" />
          </mxGeometry>
        </mxCell>
        <mxCell id="EB96sz4gFDCfG6SzcCJD-20" value="" style="ellipse;whiteSpace=wrap;html=1;fontSize=13;rounded=0;fillColor=#000000;" parent="1" vertex="1">
          <mxGeometry x="1465.04" y="565" width="15" height="15" as="geometry" />
        </mxCell>
        <mxCell id="-cm2Z-s2fDRTvtbCWfyC-3" style="edgeStyle=orthogonalEdgeStyle;shape=connector;rounded=1;orthogonalLoop=1;jettySize=auto;html=1;entryX=0.14;entryY=0.007;entryDx=0;entryDy=0;entryPerimeter=0;labelBackgroundColor=default;strokeColor=default;fontFamily=Helvetica;fontSize=13;fontColor=default;endArrow=none;endFill=0;fillColor=none;" edge="1" parent="1" source="a_KJJjjEtvl59DgsPk7j-4" target="1nyOireFhNk5vsuvswtc-23">
          <mxGeometry relative="1" as="geometry" />
        </mxCell>
        <mxCell id="a_KJJjjEtvl59DgsPk7j-4" value="" style="ellipse;whiteSpace=wrap;html=1;fontSize=13;rounded=0;fillColor=none;" parent="1" vertex="1">
          <mxGeometry x="1376.32" y="190" width="15" height="15" as="geometry" />
        </mxCell>
        <mxCell id="a_KJJjjEtvl59DgsPk7j-67" value="" style="ellipse;whiteSpace=wrap;html=1;fontSize=13;rounded=0;" parent="1" vertex="1">
          <mxGeometry x="1512.57" y="232.5" width="15" height="15" as="geometry" />
        </mxCell>
        <mxCell id="-cm2Z-s2fDRTvtbCWfyC-2" style="edgeStyle=orthogonalEdgeStyle;shape=connector;rounded=1;orthogonalLoop=1;jettySize=auto;html=1;labelBackgroundColor=default;strokeColor=default;fontFamily=Helvetica;fontSize=13;fontColor=default;endArrow=none;endFill=0;fillColor=none;entryX=0.898;entryY=-0.003;entryDx=0;entryDy=0;entryPerimeter=0;" edge="1" parent="1" source="-cm2Z-s2fDRTvtbCWfyC-1" target="1nyOireFhNk5vsuvswtc-23">
          <mxGeometry relative="1" as="geometry">
            <mxPoint x="1475" y="230" as="targetPoint" />
          </mxGeometry>
        </mxCell>
        <mxCell id="-cm2Z-s2fDRTvtbCWfyC-1" value="" style="ellipse;whiteSpace=wrap;html=1;fontSize=13;rounded=0;fillColor=none;" vertex="1" parent="1">
          <mxGeometry x="1467.57" y="190" width="15" height="15" as="geometry" />
        </mxCell>
        <mxCell id="-cm2Z-s2fDRTvtbCWfyC-4" value="kitColors" style="text;html=1;align=center;verticalAlign=middle;resizable=0;points=[];autosize=1;strokeColor=none;fillColor=none;fontSize=13;fontFamily=Helvetica;fontColor=default;" vertex="1" parent="1">
          <mxGeometry x="1440.07" y="160" width="70" height="30" as="geometry" />
        </mxCell>
        <mxCell id="-cm2Z-s2fDRTvtbCWfyC-6" value="(1,n)" style="text;html=1;align=center;verticalAlign=middle;resizable=0;points=[];autosize=1;strokeColor=none;fillColor=none;fontSize=13;fontFamily=Helvetica;fontColor=default;" vertex="1" parent="1">
          <mxGeometry x="1432.57" y="205" width="50" height="30" as="geometry" />
        </mxCell>
      </root>
    </mxGraphModel>
  </diagram>
</mxfile>
